<?xml version="1.0" encoding="UTF-8"?>
<svg version="1.1" xmlns="http://www.w3.org/2000/svg" width="500" height="98">
<path d="M0 0 C3.34125 -0.0825 6.6825 -0.165 10.125 -0.25 C11.16672363 -0.28641602 12.20844727 -0.32283203 13.28173828 -0.36035156 C19.18230039 -0.43071795 22.52806305 0.04123614 27 4 C28.39457694 6.78915389 28.1821922 8.90273264 28 12 C27 14.875 27 14.875 26 17 C26.474375 17.350625 26.94875 17.70125 27.4375 18.0625 C29.7821501 20.96986612 29.87490124 23.30958661 30 27 C28.48483372 31.01519063 27.5944747 32.60368353 24 35 C21.45629883 35.22705078 21.45629883 35.22705078 18.45703125 35.1953125 C17.48999268 35.19031738 16.5229541 35.18532227 15.52661133 35.18017578 C14.30095459 35.16196777 13.07529785 35.14375977 11.8125 35.125 C7.914375 35.08375 4.01625 35.0425 0 35 C0 23.45 0 11.9 0 0 Z M8 7 C8 9.31 8 11.62 8 14 C9.4370809 14.05422947 10.87475462 14.09289723 12.3125 14.125 C13.51326172 14.15980469 13.51326172 14.15980469 14.73828125 14.1953125 C17.28388576 14.15817322 17.28388576 14.15817322 20 12 C20 10.68 20 9.36 20 8 C17.47524538 6.73762269 15.68799534 6.90143596 12.875 6.9375 C11.96492187 6.94652344 11.05484375 6.95554687 10.1171875 6.96484375 C9.06917969 6.98224609 9.06917969 6.98224609 8 7 Z M8 20 C8 22.97 8 25.94 8 29 C9.60379341 29.05416188 11.20811406 29.09286638 12.8125 29.125 C13.70582031 29.14820313 14.59914062 29.17140625 15.51953125 29.1953125 C18.25402714 29.18285827 18.25402714 29.18285827 21 27 C21.33343551 24.45792029 21.33343551 24.45792029 21 22 C19.18884044 20.18884044 16.38721773 20.61800552 13.9375 20.4375 C12.83277344 20.35371094 11.72804687 20.26992188 10.58984375 20.18359375 C9.73519531 20.12300781 8.88054687 20.06242187 8 20 Z " fill="#000000" transform="translate(222,25)"/>
<path d="M0 0 C3.34125 -0.0825 6.6825 -0.165 10.125 -0.25 C11.16672363 -0.28641602 12.20844727 -0.32283203 13.28173828 -0.36035156 C19.18230039 -0.43071795 22.52806305 0.04123614 27 4 C28.39457694 6.78915389 28.1821922 8.90273264 28 12 C27 14.875 27 14.875 26 17 C26.474375 17.350625 26.94875 17.70125 27.4375 18.0625 C29.7821501 20.96986612 29.87490124 23.30958661 30 27 C28.48483372 31.01519063 27.5944747 32.60368353 24 35 C21.45629883 35.22705078 21.45629883 35.22705078 18.45703125 35.1953125 C17.48999268 35.19031738 16.5229541 35.18532227 15.52661133 35.18017578 C14.30095459 35.16196777 13.07529785 35.14375977 11.8125 35.125 C7.914375 35.08375 4.01625 35.0425 0 35 C0 23.45 0 11.9 0 0 Z M8 7 C8 9.31 8 11.62 8 14 C9.4370809 14.05422947 10.87475462 14.09289723 12.3125 14.125 C13.51326172 14.15980469 13.51326172 14.15980469 14.73828125 14.1953125 C17.28388576 14.15817322 17.28388576 14.15817322 20 12 C19.67 10.35 19.34 8.7 19 7 C15.37 7 11.74 7 8 7 Z M8 20 C8 22.97 8 25.94 8 29 C9.60379341 29.05416188 11.20811406 29.09286638 12.8125 29.125 C13.70582031 29.14820313 14.59914062 29.17140625 15.51953125 29.1953125 C18.25402714 29.18285827 18.25402714 29.18285827 21 27 C21.33343551 24.45792029 21.33343551 24.45792029 21 22 C19.18884044 20.18884044 16.38721773 20.61800552 13.9375 20.4375 C12.83277344 20.35371094 11.72804687 20.26992188 10.58984375 20.18359375 C9.73519531 20.12300781 8.88054687 20.06242187 8 20 Z " fill="#000000" transform="translate(118,25)"/>
<path d="M0 0 C5.0428125 -0.061875 5.0428125 -0.061875 10.1875 -0.125 C11.23832764 -0.14320801 12.28915527 -0.16141602 13.37182617 -0.18017578 C14.21205322 -0.1851709 15.05228027 -0.19016602 15.91796875 -0.1953125 C16.77156982 -0.20578613 17.6251709 -0.21625977 18.50463867 -0.22705078 C22.17812119 0.10719623 25.01493327 1.15080455 27.8125 3.5625 C29.63926327 7.31217199 29.70016682 10.9119292 29 15 C27.125 17.4375 27.125 17.4375 25 19 C24.34 19.66 23.68 20.32 23 21 C23.48210937 21.59167969 23.96421875 22.18335937 24.4609375 22.79296875 C25.40839844 23.97826172 25.40839844 23.97826172 26.375 25.1875 C27.00148437 25.96480469 27.62796875 26.74210937 28.2734375 27.54296875 C29.97807134 29.96879382 31.01987906 32.21309045 32 35 C28.43011273 35.79005702 25.53791966 36.02094253 22 35 C19.51696467 32.10891341 17.77846687 29.17828092 15.984375 25.8203125 C13.93868594 22.31966475 13.93868594 22.31966475 8 21 C8 25.62 8 30.24 8 35 C5.36 35 2.72 35 0 35 C0 23.45 0 11.9 0 0 Z M8 7 C8 9.64 8 12.28 8 15 C9.41623216 15.05447047 10.83308191 15.09300508 12.25 15.125 C13.43335938 15.15980469 13.43335938 15.15980469 14.640625 15.1953125 C17.20731941 14.9828378 18.7916067 14.28654105 21 13 C20.62095792 9.70924004 20.62095792 9.70924004 19 7 C17.14712498 6.92773498 15.29166122 6.9161878 13.4375 6.9375 C12.42558594 6.94652344 11.41367188 6.95554687 10.37109375 6.96484375 C9.58863281 6.97644531 8.80617187 6.98804688 8 7 Z " fill="#000000" transform="translate(187,25)"/>
<path d="M0 0 C5.0428125 -0.061875 5.0428125 -0.061875 10.1875 -0.125 C11.23832764 -0.14320801 12.28915527 -0.16141602 13.37182617 -0.18017578 C14.21205322 -0.1851709 15.05228027 -0.19016602 15.91796875 -0.1953125 C16.77156982 -0.20578613 17.6251709 -0.21625977 18.50463867 -0.22705078 C22.17812119 0.10719623 25.01493327 1.15080455 27.8125 3.5625 C29.63926327 7.31217199 29.70016682 10.9119292 29 15 C27.125 17.4375 27.125 17.4375 25 19 C24.34 19.66 23.68 20.32 23 21 C23.48210937 21.59167969 23.96421875 22.18335937 24.4609375 22.79296875 C25.40839844 23.97826172 25.40839844 23.97826172 26.375 25.1875 C27.00148438 25.96480469 27.62796875 26.74210937 28.2734375 27.54296875 C29.97807134 29.96879382 31.01987906 32.21309045 32 35 C28.43011273 35.79005702 25.53791966 36.02094253 22 35 C19.51696467 32.10891341 17.77846687 29.17828092 15.984375 25.8203125 C13.93868594 22.31966475 13.93868594 22.31966475 8 21 C8 25.62 8 30.24 8 35 C5.36 35 2.72 35 0 35 C0 23.45 0 11.9 0 0 Z M8 7 C8 9.64 8 12.28 8 15 C9.41623216 15.05447047 10.83308191 15.09300508 12.25 15.125 C13.43335938 15.15980469 13.43335938 15.15980469 14.640625 15.1953125 C17.20731941 14.9828378 18.7916067 14.28654105 21 13 C20.62095792 9.70924004 20.62095792 9.70924004 19 7 C17.14712498 6.92773498 15.29166122 6.9161878 13.4375 6.9375 C12.42558594 6.94652344 11.41367187 6.95554687 10.37109375 6.96484375 C9.58863281 6.97644531 8.80617188 6.98804688 8 7 Z " fill="#000000" transform="translate(323,25)"/>
<path d="M0 0 C5.0428125 -0.061875 5.0428125 -0.061875 10.1875 -0.125 C11.23832764 -0.14320801 12.28915527 -0.16141602 13.37182617 -0.18017578 C14.21205322 -0.1851709 15.05228027 -0.19016602 15.91796875 -0.1953125 C16.77156982 -0.20578613 17.6251709 -0.21625977 18.50463867 -0.22705078 C21.36323386 0.03305034 23.43827428 0.71247377 26 2 C28.36368768 5.38795233 29 7.42130373 29 11.5625 C27.82142596 15.61384827 26.09668349 17.22092507 23 20 C23 23.57615313 26.16689541 26.04808779 28.37109375 28.7109375 C29.93144286 30.9036583 30.57454265 32.37534761 31 35 C27.74492832 35.83108213 25.23383549 35.9882523 22 35 C19.27572268 32.07831128 17.29083116 29.18896881 15.140625 25.8203125 C13.00528015 22.50424204 13.00528015 22.50424204 8 21 C8 25.62 8 30.24 8 35 C5.36 35 2.72 35 0 35 C0 23.45 0 11.9 0 0 Z M8 7 C8 9.64 8 12.28 8 15 C14.31268603 15.37552165 14.31268603 15.37552165 20 13 C20 11.35 20 9.7 20 8 C17.47524538 6.73762269 15.68799534 6.90143596 12.875 6.9375 C11.96492188 6.94652344 11.05484375 6.95554687 10.1171875 6.96484375 C9.06917969 6.98224609 9.06917969 6.98224609 8 7 Z " fill="#000000" transform="translate(289,25)"/>
<path d="M0 0 C2.64 0 5.28 0 8 0 C8.02505615 0.67579102 8.0501123 1.35158203 8.07592773 2.04785156 C8.19210742 5.1154168 8.31473437 8.18269158 8.4375 11.25 C8.47681641 12.31347656 8.51613281 13.37695312 8.55664062 14.47265625 C8.61948242 16.00986328 8.61948242 16.00986328 8.68359375 17.578125 C8.72025146 18.52075195 8.75690918 19.46337891 8.79467773 20.43457031 C8.98146982 22.76847186 9.22462972 24.79180551 10 27 C12.76250036 28.38125018 14.94731099 28.19079306 18 28 C20.67848546 25.32151454 20.30504006 23.86029139 20.4140625 20.1171875 C20.45273438 18.95058594 20.49140625 17.78398438 20.53125 16.58203125 C20.5621875 15.35871094 20.593125 14.13539062 20.625 12.875 C20.66367188 11.64394531 20.70234375 10.41289063 20.7421875 9.14453125 C20.8366999 6.09650624 20.92225494 3.04849138 21 0 C23.64 0 26.28 0 29 0 C29.08760181 4.18736668 29.14059435 8.37449531 29.1875 12.5625 C29.21263672 13.74392578 29.23777344 14.92535156 29.26367188 16.14257812 C29.36067221 27.68561813 29.36067221 27.68561813 26 33 C22.43007779 35.95483426 19.56854637 36.40996337 15 36.375 C13.989375 36.38273437 12.97875 36.39046875 11.9375 36.3984375 C7.66243389 35.81857481 5.12352791 34.22769606 2.23046875 31.06640625 C-2.55041281 23.03756072 -0.08400497 9.09120433 0 0 Z " fill="#000000" transform="translate(152,25)"/>
<path d="M0 0 C8.58 0 17.16 0 26 0 C26 2.31 26 4.62 26 7 C19.73 7 13.46 7 7 7 C7 9.31 7 11.62 7 14 C12.94 14 18.88 14 25 14 C25 15.98 25 17.96 25 20 C19.06 20 13.12 20 7 20 C7 22.97 7 25.94 7 29 C13.6 29 20.2 29 27 29 C27 30.98 27 32.96 27 35 C18.09 35 9.18 35 0 35 C0 23.45 0 11.9 0 0 Z " fill="#000000" transform="translate(257,25)"/>
<path d="M0 0 C3.25109676 -0.79618696 5.78763307 -1.03690325 9 0 C11.97930787 3.69175105 14.01294354 7.70642463 16 12 C16.49371094 11.21753906 16.98742187 10.43507813 17.49609375 9.62890625 C18.45708984 8.11103516 18.45708984 8.11103516 19.4375 6.5625 C20.07558594 5.55316406 20.71367187 4.54382813 21.37109375 3.50390625 C23 1 23 1 24 0 C25.51928038 -0.07179964 27.04167482 -0.08392007 28.5625 -0.0625 C29.38878906 -0.05347656 30.21507812 -0.04445313 31.06640625 -0.03515625 C31.70449219 -0.02355469 32.34257812 -0.01195313 33 0 C32.13084554 1.6489278 31.25426898 3.29394336 30.375 4.9375 C29.83230469 5.95199219 29.28960937 6.96648438 28.73046875 8.01171875 C27.20688805 10.64273283 25.56500407 12.87243431 23.6875 15.25 C19.5884797 21.10421437 20.01817092 28.10413578 20 35 C17.36 35 14.72 35 12 35 C12.05542969 34.11441406 12.11085938 33.22882812 12.16796875 32.31640625 C12.22834348 20.71238298 7.89049225 13.78356181 0.99389648 4.66308594 C0 3 0 3 0 0 Z " fill="#000000" transform="translate(353,25)"/>
</svg>
