<?xml version="1.0" encoding="UTF-8"?>
<svg version="1.1" xmlns="http://www.w3.org/2000/svg" width="500" height="98">
<path d="M0 0 C3.01125 -0.061875 6.0225 -0.12375 9.125 -0.1875 C10.06230957 -0.21481201 10.99961914 -0.24212402 11.96533203 -0.27026367 C17.07751305 -0.3208955 20.58409136 0.13341325 25 3 C30.25518307 8.53924702 30.35347615 13.55506633 30.28125 20.94921875 C29.78821056 26.29732714 28.09911836 30.18409602 24.03125 33.703125 C19.45568562 35.66071182 15.10135169 35.31521569 10.1875 35.1875 C6.825625 35.125625 3.46375 35.06375 0 35 C0 23.45 0 11.9 0 0 Z M8 7 C8 14.26 8 21.52 8 29 C14.74216728 29.5287632 14.74216728 29.5287632 20 27 C22.59166202 22.72375767 22.58917135 17.85406842 22 13 C20.2880813 9.23601432 20.2880813 9.23601432 17 7 C14.03 7 11.06 7 8 7 Z " fill="#000000" transform="translate(166,25)"/>
<path d="M0 0 C1.69576172 -0.03867187 1.69576172 -0.03867187 3.42578125 -0.078125 C7.02827832 0.28428189 8.82169627 1.07909027 11.6875 3.25 C13.8394437 6.47791555 13.88836443 7.53400809 13.6875 11.25 C11.0475 11.25 8.4075 11.25 5.6875 11.25 C5.3575 10.26 5.0275 9.27 4.6875 8.25 C0.58526415 7.23459888 0.58526415 7.23459888 -3.3125 8.25 C-3.6425 9.24 -3.9725 10.23 -4.3125 11.25 C-3.51585937 11.42015625 -2.71921875 11.5903125 -1.8984375 11.765625 C4.07736659 13.13235392 8.94829204 14.27931225 13.6875 18.25 C15.54605282 21.96710563 15.26658439 26.20277281 14.6875 30.25 C12.16073961 33.59625024 10.64816458 34.92977847 6.6875 36.25 C0.4985715 36.75521865 -5.09745888 37.03090481 -10.3125 33.25 C-12.97950027 29.87179966 -13.67893342 27.52505653 -13.3125 23.25 C-10.0625 22.9375 -10.0625 22.9375 -6.3125 23.25 C-4.3125 25.75 -4.3125 25.75 -2.3125 28.25 C1.35549815 28.66771804 1.35549815 28.66771804 4.6875 28.25 C5.0175 26.6 5.3475 24.95 5.6875 23.25 C4.80707031 23.01925781 3.92664063 22.78851563 3.01953125 22.55078125 C-9.35025942 19.07735501 -9.35025942 19.07735501 -12.3125 14.25 C-13.27534874 9.86368906 -12.85966409 7.10722374 -10.4375 3.3125 C-6.98476713 -0.0386819 -4.73186716 0.06430624 0 0 Z " fill="#000000" transform="translate(258.3125,24.75)"/>
<path d="M0 0 C8.91 0 17.82 0 27 0 C27 2.31 27 4.62 27 7 C20.73 7 14.46 7 8 7 C8 9.31 8 11.62 8 14 C13.94 14 19.88 14 26 14 C26 15.98 26 17.96 26 20 C20.06 20 14.12 20 8 20 C8 22.97 8 25.94 8 29 C14.27 29 20.54 29 27 29 C27 30.98 27 32.96 27 35 C18.09 35 9.18 35 0 35 C0 23.45 0 11.9 0 0 Z " fill="#000000" transform="translate(278,25)"/>
<path d="M0 0 C8.91 0 17.82 0 27 0 C27 2.31 27 4.62 27 7 C20.73 7 14.46 7 8 7 C8 9.31 8 11.62 8 14 C13.61 14 19.22 14 25 14 C25 15.98 25 17.96 25 20 C19.39 20 13.78 20 8 20 C8 22.97 8 25.94 8 29 C14.27 29 20.54 29 27 29 C27 30.98 27 32.96 27 35 C18.09 35 9.18 35 0 35 C0 23.45 0 11.9 0 0 Z " fill="#000000" transform="translate(214,25)"/>
<path d="M0 0 C2.31 0 4.62 0 7 0 C7 9.57 7 19.14 7 29 C12.94 29 18.88 29 25 29 C25 30.98 25 32.96 25 35 C16.75 35 8.5 35 0 35 C0 23.45 0 11.9 0 0 Z " fill="#000000" transform="translate(311,25)"/>
<path d="M0 0 C2.64 0 5.28 0 8 0 C8 11.55 8 23.1 8 35 C5.36 35 2.72 35 0 35 C0 23.45 0 11.9 0 0 Z " fill="#000000" transform="translate(201,25)"/>
</svg>
