<?xml version="1.0" encoding="UTF-8"?>
<svg version="1.1" xmlns="http://www.w3.org/2000/svg" width="500" height="98">
<path d="M0 0 C3.96 0 7.92 0 12 0 C13.65 5.94 15.3 11.88 17 18 C18.88783216 14.22433567 19.99909624 10.80325354 21.125 6.75 C21.47820312 5.48671875 21.83140625 4.2234375 22.1953125 2.921875 C22.46085937 1.95765625 22.72640625 0.9934375 23 0 C26.96 0 30.92 0 35 0 C35 11.55 35 23.1 35 35 C32.36 35 29.72 35 27 35 C26.67 29.72 26.34 24.44 26 19 C24.68 24.28 23.36 29.56 22 35 C19.03 35 16.06 35 13 35 C11.68 29.72 10.36 24.44 9 19 C8.67 24.28 8.34 29.56 8 35 C5.36 35 2.72 35 0 35 C0 23.45 0 11.9 0 0 Z " fill="#000000" transform="translate(345,25)"/>
<path d="M0 0 C3.63 0 7.26 0 11 0 C16 14.77272727 16 14.77272727 16 20 C16.66 20 17.32 20 18 20 C18.103125 18.906875 18.20625 17.81375 18.3125 16.6875 C20.00575153 2.99424847 20.00575153 2.99424847 23 0 C26.63 0 30.26 0 34 0 C34 11.55 34 23.1 34 35 C31.69 35 29.38 35 27 35 C26.505 25.595 26.505 25.595 26 16 C24.35 22.27 22.7 28.54 21 35 C18.36 35 15.72 35 13 35 C11.35 29.06 9.7 23.12 8 17 C7.67 22.94 7.34 28.88 7 35 C4.69 35 2.38 35 0 35 C0 23.45 0 11.9 0 0 Z " fill="#000000" transform="translate(70,25)"/>
<path d="M0 0 C3.34125 -0.061875 6.6825 -0.12375 10.125 -0.1875 C11.68758545 -0.22846802 11.68758545 -0.22846802 13.28173828 -0.27026367 C18.61349059 -0.31795101 22.41106409 -0.04687465 27 3 C29.62998478 6.34725336 29.43342998 9.8824152 29 14 C27.20573857 16.69139215 25.27765827 18.72234173 23 21 C23.48210937 21.67546875 23.96421875 22.3509375 24.4609375 23.046875 C25.09257812 23.93890625 25.72421875 24.8309375 26.375 25.75 C27.00148438 26.63171875 27.62796875 27.5134375 28.2734375 28.421875 C29.71480941 30.57414979 30.91498093 32.65460523 32 35 C28.42488008 35.80608132 25.55016585 35.99879318 22 35 C19.2043086 32.08161368 17.26017511 29.240353 15.10546875 25.8203125 C13.00771381 22.49863847 13.00771381 22.49863847 8 21 C8 25.62 8 30.24 8 35 C5.36 35 2.72 35 0 35 C0 23.45 0 11.9 0 0 Z M8 7 C8 9.64 8 12.28 8 15 C14.03091135 15.47530891 14.03091135 15.47530891 19.5625 13.5 C20.036875 13.005 20.51125 12.51 21 12 C20.34 10.35 19.68 8.7 19 7 C15.37 7 11.74 7 8 7 Z " fill="#000000" transform="translate(311,25)"/>
<path d="M0 0 C5.0428125 -0.061875 5.0428125 -0.061875 10.1875 -0.125 C11.23832764 -0.14320801 12.28915527 -0.16141602 13.37182617 -0.18017578 C14.21205322 -0.1851709 15.05228027 -0.19016602 15.91796875 -0.1953125 C16.77156982 -0.20578613 17.6251709 -0.21625977 18.50463867 -0.22705078 C22.17812119 0.10719623 25.01493327 1.15080455 27.8125 3.5625 C29.63926327 7.31217199 29.70016682 10.9119292 29 15 C27.125 17.4375 27.125 17.4375 25 19 C24.34 19.66 23.68 20.32 23 21 C23.48210937 21.59167969 23.96421875 22.18335937 24.4609375 22.79296875 C25.40839844 23.97826172 25.40839844 23.97826172 26.375 25.1875 C27.00148437 25.96480469 27.62796875 26.74210937 28.2734375 27.54296875 C29.97807134 29.96879382 31.01987906 32.21309045 32 35 C28.43011273 35.79005702 25.53791966 36.02094253 22 35 C19.51696467 32.10891341 17.77846687 29.17828092 15.984375 25.8203125 C13.93868594 22.31966475 13.93868594 22.31966475 8 21 C8 25.62 8 30.24 8 35 C5.36 35 2.72 35 0 35 C0 23.45 0 11.9 0 0 Z M8 7 C8 9.64 8 12.28 8 15 C9.41623216 15.05447047 10.83308191 15.09300508 12.25 15.125 C13.43335938 15.15980469 13.43335938 15.15980469 14.640625 15.1953125 C17.20731941 14.9828378 18.7916067 14.28654105 21 13 C20.62095792 9.70924004 20.62095792 9.70924004 19 7 C17.14712498 6.92773498 15.29166122 6.9161878 13.4375 6.9375 C12.42558594 6.94652344 11.41367188 6.95554687 10.37109375 6.96484375 C9.58863281 6.97644531 8.80617187 6.98804688 8 7 Z " fill="#000000" transform="translate(179,25)"/>
<path d="M0 0 C8 0 8 0 10.00976562 1.74414062 C10.70102539 2.93813477 10.70102539 2.93813477 11.40625 4.15625 C11.921875 5.01347656 12.4375 5.87070312 12.96875 6.75390625 C13.4740625 7.66011719 13.979375 8.56632812 14.5 9.5 C15.03625 10.40621094 15.5725 11.31242187 16.125 12.24609375 C17.44304138 14.4820568 18.72509293 16.7391648 20 19 C20.33 12.73 20.66 6.46 21 0 C23.31 0 25.62 0 28 0 C28 11.55 28 23.1 28 35 C20 35 20 35 18.08203125 33.43945312 C17.66308594 32.72724609 17.24414062 32.01503906 16.8125 31.28125 C16.34199219 30.51425781 15.87148438 29.74726562 15.38671875 28.95703125 C14.92910156 28.14621094 14.47148437 27.33539063 14 26.5 C13.51144531 25.68917969 13.02289063 24.87835938 12.51953125 24.04296875 C11.32021071 22.04410119 10.15652969 20.02392696 9 18 C8.67 23.61 8.34 29.22 8 35 C5.36 35 2.72 35 0 35 C0 23.45 0 11.9 0 0 Z " fill="#000000" transform="translate(420,25)"/>
<path d="M0 0 C4.62221995 2.36333845 8.02807054 4.91035166 10.25 9.6875 C11.84648579 16.73864556 11.74611182 23.63160991 8 30 C4.76091151 33.56653733 1.44449007 35.72356332 -3.41796875 36.2734375 C-9.36439467 36.49150107 -13.32680857 35.93219614 -18.34375 32.6796875 C-22.72736272 28.23404253 -23.43135223 23.54940844 -23.4375 17.5 C-23.45683594 16.2315625 -23.47617188 14.963125 -23.49609375 13.65625 C-22.77259929 8.32403883 -20.34664777 5.31211834 -16.5625 1.625 C-11.20348431 -0.8194633 -5.80018007 -0.80578221 0 0 Z M-14 10 C-15.44440034 14.33320102 -15.54168843 18.4714847 -15 23 C-13.20353146 25.93423195 -12.0558929 27.47205355 -9 29 C-5.08510422 29.5219861 -3.47886264 29.32988315 -0.1875 27.0625 C2.65679666 23.08048468 3.316398 19.85713688 3 15 C1.69897535 11.59255449 0.56327022 9.56327022 -2 7 C-8.68064452 6.37354088 -8.68064452 6.37354088 -14 10 Z " fill="#000000" transform="translate(164,25)"/>
<path d="M0 0 C4.06380553 1.97032996 6.33742604 4.93634647 8.0859375 8.9609375 C9.7069519 14.92395476 9.53067786 20.96572391 7.6171875 26.8125 C4.67803097 30.82934726 1.55616582 33.77034056 -3.2578125 35.375 C-9.22670531 35.90922104 -14.19374948 35.90806722 -19.2578125 32.375 C-23.81524899 27.84233219 -25.4148058 24.07964393 -25.5703125 17.6875 C-25.49143827 10.43983476 -23.85993772 6.04384637 -18.8203125 0.875 C-12.83395086 -1.64557332 -6.27488893 -1.73699347 0 0 Z M-16.2578125 10.375 C-17.88341923 15.2518202 -18.06712936 19.6022107 -15.9453125 24.25 C-13.67543154 27.10836862 -12.02336097 28.27514585 -8.3828125 28.75 C-4.51926454 28.28637424 -2.98216241 27.09934991 -0.2578125 24.375 C1.30782807 19.67807828 1.26247578 15.21602005 -0.0703125 10.5 C-1.21338098 8.0754767 -1.21338098 8.0754767 -4.2578125 6.375 C-11.3029213 5.6912414 -11.3029213 5.6912414 -16.2578125 10.375 Z " fill="#000000" transform="translate(251.2578125,25.625)"/>
<path d="M0 0 C8.58 0 17.16 0 26 0 C26 2.31 26 4.62 26 7 C20.06 7 14.12 7 8 7 C8 9.31 8 11.62 8 14 C13.61 14 19.22 14 25 14 C25 15.98 25 17.96 25 20 C19.39 20 13.78 20 8 20 C8 22.97 8 25.94 8 29 C14.27 29 20.54 29 27 29 C27 30.98 27 32.96 27 35 C18.09 35 9.18 35 0 35 C0 23.45 0 11.9 0 0 Z " fill="#000000" transform="translate(38,25)"/>
<path d="M0 0 C2.97 0 5.94 0 9 0 C10.85809101 4.49963651 12.70930915 9.00201493 14.55419922 13.50708008 C15.18284749 15.03943052 15.81337096 16.57101304 16.44580078 18.10180664 C17.35422284 20.30155706 18.25587781 22.50397586 19.15625 24.70703125 C19.44060913 25.39150833 19.72496826 26.07598541 20.01794434 26.78120422 C21.19839905 29.68591119 22 31.83205463 22 35 C19.36 35 16.72 35 14 35 C13.01 33.02 12.02 31.04 11 29 C6.71 29 2.42 29 -2 29 C-2.66 30.98 -3.32 32.96 -4 35 C-6.97 35 -9.94 35 -13 35 C-10.76690842 27.06176747 -7.92333637 19.50786526 -4.8125 11.875 C-4.34908203 10.72773437 -3.88566406 9.58046875 -3.40820312 8.3984375 C-2.27608834 5.59732875 -1.13995466 2.79792518 0 0 Z M4 11 C1.70954986 15.81209901 1.70954986 15.81209901 1 21 C3.31 21 5.62 21 8 21 C7.01 17.7 6.02 14.4 5 11 C4.67 11 4.34 11 4 11 Z " fill="#000000" transform="translate(395,25)"/>
<path d="M0 0 C2.64 0 5.28 0 8 0 C11.54957907 6.7840086 14.42480793 13.76274321 17.25 20.875 C17.70890625 22.01453125 18.1678125 23.1540625 18.640625 24.328125 C19.07375 25.41351563 19.506875 26.49890625 19.953125 27.6171875 C20.34661133 28.60315918 20.74009766 29.58913086 21.14550781 30.60498047 C22 33 22 33 22 35 C19.03 35 16.06 35 13 35 C12.34 32.69 11.68 30.38 11 28 C6.38 28 1.76 28 -3 28 C-3.33 29.98 -3.66 31.96 -4 34 C-5 35 -5 35 -6.84765625 35.09765625 C-8.8984375 35.06510417 -10.94921875 35.03255208 -13 35 C-12.32433393 30.91307916 -11.05513328 27.30418062 -9.53125 23.45703125 C-9.29088013 22.84736008 -9.05051025 22.2376889 -8.80285645 21.60954285 C-8.03914864 19.6756211 -7.26955631 17.74410079 -6.5 15.8125 C-5.9827084 14.50339919 -5.46577764 13.19415573 -4.94921875 11.88476562 C-1.18910274 2.37820547 -1.18910274 2.37820547 0 0 Z M4 11 C2.68 14.3 1.36 17.6 0 21 C2.64 21 5.28 21 8 21 C7.01 17.7 6.02 14.4 5 11 C4.67 11 4.34 11 4 11 Z " fill="#000000" transform="translate(286,25)"/>
<path d="M0 0 C3.01125 -0.061875 6.0225 -0.12375 9.125 -0.1875 C10.06230957 -0.21481201 10.99961914 -0.24212402 11.96533203 -0.27026367 C17.03442691 -0.32046876 20.6927035 0.01441286 25 3 C27.79058931 6.94392536 27.63041079 11.35486789 27 16 C25.625 18.9375 25.625 18.9375 23 21 C17.96250827 22.61403614 13.28279277 23 8 23 C8 26.96 8 30.92 8 35 C5.36 35 2.72 35 0 35 C0 23.45 0 11.9 0 0 Z M8 7 C8 9.97 8 12.94 8 16 C12.96551325 16.35606813 12.96551325 16.35606813 17.4375 14.5 C17.953125 14.005 18.46875 13.51 19 13 C18.65555119 10.52733235 18.65555119 10.52733235 18 8 C15.71294169 6.85647084 14.40735238 6.89665561 11.875 6.9375 C9.956875 6.9684375 9.956875 6.9684375 8 7 Z " fill="#000000" transform="translate(110,25)"/>
<path d="M0 0 C2.64 0 5.28 0 8 0 C8 11.55 8 23.1 8 35 C5.36 35 2.72 35 0 35 C0 23.45 0 11.9 0 0 Z " fill="#000000" transform="translate(214,25)"/>
<path d="M0 0 C2.31 0 4.62 0 7 0 C7 11.55 7 23.1 7 35 C4.69 35 2.38 35 0 35 C0 23.45 0 11.9 0 0 Z " fill="#000000" transform="translate(455,25)"/>
</svg>
