<?xml version="1.0" encoding="UTF-8"?>
<svg version="1.1" xmlns="http://www.w3.org/2000/svg" width="500" height="98">
<path d="M0 0 C2.89224913 1.82744099 4.77303186 3.99561752 5.8203125 7.2421875 C5.8203125 8.2321875 5.8203125 9.2221875 5.8203125 10.2421875 C3.1803125 10.5721875 0.5403125 10.9021875 -2.1796875 11.2421875 C-2.5096875 10.5821875 -2.8396875 9.9221875 -3.1796875 9.2421875 C-5.17980348 6.83380635 -5.17980348 6.83380635 -9.1171875 6.7421875 C-11.8507134 6.91838162 -13.20716521 7.2566133 -15.6796875 8.5546875 C-18.13969125 12.96219422 -17.99219901 17.33084559 -17.1796875 22.2421875 C-15.48868759 25.68426549 -15.48868759 25.68426549 -12.1796875 27.2421875 C-9.00670885 27.5321321 -6.1575897 27.41813709 -3.1796875 26.2421875 C-1.8726703 24.26037841 -1.8726703 24.26037841 -1.1796875 22.2421875 C-3.8196875 22.2421875 -6.4596875 22.2421875 -9.1796875 22.2421875 C-9.1796875 19.9321875 -9.1796875 17.6221875 -9.1796875 15.2421875 C-3.8996875 15.2421875 1.3803125 15.2421875 6.8203125 15.2421875 C6.8203125 20.1921875 6.8203125 25.1421875 6.8203125 30.2421875 C-0.40864909 34.43288987 -5.79714424 36.43213844 -14.1796875 35.2421875 C-19.10935701 33.59896433 -22.62789104 30.79145759 -25.1796875 26.2421875 C-27.49567998 19.78814211 -27.78510682 13.63953166 -25.1796875 7.2421875 C-19.7697784 -1.62247056 -9.60885096 -3.34071162 0 0 Z " fill="#000000" transform="translate(201.1796875,25.7578125)"/>
<path d="M0 0 C2.64 0 5.28 0 8 0 C8.01981934 0.77714355 8.03963867 1.55428711 8.06005859 2.35498047 C8.15507009 5.86200691 8.26484559 9.36841794 8.375 12.875 C8.4059375 14.09832031 8.436875 15.32164063 8.46875 16.58203125 C8.50742188 17.74863281 8.54609375 18.91523437 8.5859375 20.1171875 C8.6173584 21.19597168 8.6487793 22.27475586 8.68115234 23.38623047 C8.74676322 26.15761654 8.74676322 26.15761654 11 28 C15.14509433 28.28602162 15.14509433 28.28602162 19 27 C19.33 18.09 19.66 9.18 20 0 C22.64 0 25.28 0 28 0 C28.12426099 4.01993847 28.21464411 8.03912279 28.2746582 12.06054688 C28.2996928 13.42630503 28.33373218 14.79193067 28.37719727 16.15722656 C28.77465997 28.96955389 28.77465997 28.96955389 25.66796875 32.8671875 C20.43900751 37.04729415 14.42648198 36.61123739 8 36 C4.39334668 34.3210407 2.65622954 33.2965257 0.86376953 29.75512695 C-0.13645086 26.56476881 -0.22698347 23.9467562 -0.1953125 20.60546875 C-0.18886719 19.40341797 -0.18242187 18.20136719 -0.17578125 16.96289062 C-0.15902344 15.71701172 -0.14226562 14.47113281 -0.125 13.1875 C-0.11597656 11.92228516 -0.10695312 10.65707031 -0.09765625 9.35351562 C-0.07412394 6.23548436 -0.04124545 3.11783903 0 0 Z " fill="#000000" transform="translate(213,25)"/>
<path d="M0 0 C1.69576172 -0.03867187 1.69576172 -0.03867187 3.42578125 -0.078125 C7.01716549 0.28316395 8.81859622 1.10597938 11.6875 3.25 C13.8352418 6.21240248 14.6875 7.56446856 14.6875 11.25 C12.0475 11.58 9.4075 11.91 6.6875 12.25 C6.275 11.610625 5.8625 10.97125 5.4375 10.3125 C3.87290816 8.17768922 3.87290816 8.17768922 1.8125 7.375 C-1.16975962 7.19957296 -2.75091739 7.69956842 -5.3125 9.25 C-8.02957721 14.19014038 -7.68699346 19.89039799 -6.3125 25.25 C-4.34268231 27.79387885 -3.6183612 28.19143083 -0.375 28.8125 C2.9926087 28.54167976 2.9926087 28.54167976 5.0625 25.25 C5.59875 24.26 6.135 23.27 6.6875 22.25 C12.4375 23.125 12.4375 23.125 14.6875 24.25 C13.41164356 29.23743882 11.60168193 31.90862518 7.6875 35.25 C3.33700335 36.70016555 -0.76584185 36.76070107 -5.3125 36.25 C-9.72320939 34.04464531 -12.56005746 31.32769265 -15.3125 27.25 C-17.18005549 21.37523936 -16.93987257 15.26419616 -15.125 9.4375 C-11.18292809 2.50489078 -7.77046699 0.10560091 0 0 Z " fill="#000000" transform="translate(297.3125,24.75)"/>
<path d="M0 0 C3.34919439 1.25755192 5.37297735 3.05946603 7.375 6.0625 C8 8 8 8 8 11 C5.36 11.33 2.72 11.66 0 12 C-0.350625 11.34 -0.70125 10.68 -1.0625 10 C-2.9505684 7.64240616 -2.9505684 7.64240616 -6.5 7.5 C-9.96956225 7.64352914 -9.96956225 7.64352914 -11.69140625 9.65625 C-13.33316185 12.59670779 -13.43330522 14.64417941 -13.4375 18 C-13.45683594 19.03125 -13.47617188 20.0625 -13.49609375 21.125 C-12.88223372 24.68248803 -11.89383559 25.88980484 -9 28 C-5.30567489 27.85387105 -5.30567489 27.85387105 -2 27 C-1.34 25.35 -0.68 23.7 0 22 C2.31 22.33 4.62 22.66 7 23 C7.75 24.625 7.75 24.625 8 27 C5.5325252 31.83625061 3.1470423 34.2519479 -2 36 C-7.69671566 36.73637976 -12.13357966 36.28200442 -17 33 C-21.2328351 29.0023224 -22.40441236 24.63517537 -23 19 C-23.08976842 12.94561872 -22.0437659 8.69951172 -18 4 C-12.73701795 -0.99983295 -6.88407128 -0.94302346 0 0 Z " fill="#000000" transform="translate(269,25)"/>
<path d="M0 0 C2.64 0 5.28 0 8 0 C8 11.55 8 23.1 8 35 C5.36 35 2.72 35 0 35 C0 23.45 0 11.9 0 0 Z " fill="#000000" transform="translate(317,25)"/>
</svg>
