<?xml version="1.0" encoding="UTF-8"?>
<svg version="1.1" xmlns="http://www.w3.org/2000/svg" width="500" height="98">
<path d="M0 0 C3.17625 -0.061875 6.3525 -0.12375 9.625 -0.1875 C11.1092749 -0.22846802 11.1092749 -0.22846802 12.62353516 -0.27026367 C17.8474601 -0.31936667 21.49057163 0.04903007 26 3 C28.23478096 5.72060291 27.99673889 7.04728605 27.75 10.625 C27 14 27 14 25 16 C25.66 16.639375 26.32 17.27875 27 17.9375 C29.32679266 21.50040126 29.50509153 23.58188172 29.62890625 27.71875 C28.58633248 31.50050829 27.24224262 32.75627413 24 35 C19.87446739 35.61256417 15.84635505 35.46928609 11.6875 35.3125 C7.830625 35.209375 3.97375 35.10625 0 35 C0 23.45 0 11.9 0 0 Z M8 7 C8 9.31 8 11.62 8 14 C9.4370809 14.05422947 10.87475462 14.09289723 12.3125 14.125 C13.51326172 14.15980469 13.51326172 14.15980469 14.73828125 14.1953125 C17.28388576 14.15817322 17.28388576 14.15817322 20 12 C19.50243908 9.24358584 19.50243908 9.24358584 18 7 C16.31391034 6.92794489 14.62499341 6.91613932 12.9375 6.9375 C12.01839844 6.94652344 11.09929687 6.95554687 10.15234375 6.96484375 C9.44207031 6.97644531 8.73179687 6.98804688 8 7 Z M8 20 C8 22.97 8 25.94 8 29 C9.60379341 29.05416188 11.20811406 29.09286638 12.8125 29.125 C13.70582031 29.14820313 14.59914063 29.17140625 15.51953125 29.1953125 C18.25402714 29.18285827 18.25402714 29.18285827 21 27 C21.25030977 24.41619823 21.25030977 24.41619823 21 22 C14.59784929 20.2505382 14.59784929 20.2505382 8 20 Z " fill="#000000" transform="translate(264,25)"/>
<path d="M0 0 C3.45551807 1.19091962 5.3350721 3.00260816 7.375 6.0625 C8 8 8 8 8 11 C5.36 11.33 2.72 11.66 0 12 C-0.33 11.34 -0.66 10.68 -1 10 C-3.00011598 7.59161885 -3.00011598 7.59161885 -6.9375 7.5 C-9.6710259 7.67619412 -11.02747771 8.0144258 -13.5 9.3125 C-15.96000375 13.72000672 -15.81251151 18.08865809 -15 23 C-13.30900009 26.44207799 -13.30900009 26.44207799 -10 28 C-6.82702135 28.2899446 -3.9779022 28.17594959 -1 27 C0.3070172 25.01819091 0.3070172 25.01819091 1 23 C-1.64 23 -4.28 23 -7 23 C-7 20.69 -7 18.38 -7 16 C-1.72 16 3.56 16 9 16 C9 20.95 9 25.9 9 31 C1.80902308 35.16868227 -3.65295345 37.32255147 -12 36 C-16.54180935 34.70668745 -19.83264989 32.81280553 -22.4375 28.8125 C-25.72201637 21.92088083 -25.49490282 15.38615746 -23.09375 8.23828125 C-18.51933443 -1.12293346 -9.12907548 -0.75729831 0 0 Z " fill="#000000" transform="translate(199,25)"/>
<path d="M0 0 C1.69576172 -0.03867187 1.69576172 -0.03867187 3.42578125 -0.078125 C7.68362953 0.35020944 10.15793289 1.8015463 13.234375 4.71484375 C17.51884502 9.95914634 18.04688145 14.0267969 17.96875 20.6484375 C17.37796472 26.11320137 15.0574807 29.94684763 11.125 33.6875 C5.99009188 36.97910777 0.60644508 36.96059641 -5.3125 36.25 C-9.76738328 34.56397566 -12.4951936 32.57200252 -15.0078125 28.5078125 C-16.46912527 24.85890577 -16.71328252 22.1689425 -16.6875 18.25 C-16.69523438 17.074375 -16.70296875 15.89875 -16.7109375 14.6875 C-16.12254317 9.61115675 -14.53683164 6.35488465 -10.75 2.9375 C-6.90632215 0.27649226 -4.68017723 0.06360377 0 0 Z M-7.3125 11.25 C-9.16112688 14.94725375 -8.78837094 19.21461442 -8.3125 23.25 C-6.51603146 26.18423195 -5.3683929 27.72205355 -2.3125 29.25 C1.60239578 29.7719861 3.20863736 29.57988315 6.5 27.3125 C9.34429666 23.33048468 10.003898 20.10713688 9.6875 15.25 C8.38647535 11.84255449 7.25077022 9.81327022 4.6875 7.25 C-0.88904259 6.71033459 -3.78612435 6.45412912 -7.3125 11.25 Z " fill="#000000" transform="translate(228.3125,24.75)"/>
<path d="M0 0 C4.36807886 1.88279261 7.10381723 4.4592277 9.3046875 8.75 C11.25394 15.05769347 11.06003873 22.45955054 8.5 28.5625 C5.96966129 32.74729094 2.66587291 34.72966816 -2 36 C-7.96507829 36.80086699 -12.94377817 36.52759663 -18 33 C-22.55743649 28.46733219 -24.1569933 24.70464393 -24.3125 18.3125 C-24.23373455 11.07483032 -22.58165391 6.71753043 -17.625 1.5 C-11.83530377 -0.89573637 -6.17008904 -0.71080598 0 0 Z M-13.4375 8.8125 C-16.32789353 12.85905094 -16.68405769 17.16599236 -16 22 C-13.75837575 26.25666699 -13.75837575 26.25666699 -10 29 C-6.16808162 29.42576871 -4.47050317 29.30321315 -1.1875 27.1875 C1.8113335 24.1886665 2.1663714 21.70886349 2.25 17.625 C2.21096045 13.6299526 1.58218201 11.17807016 -1 8 C-5.24374504 5.87812748 -9.73107441 6.05643995 -13.4375 8.8125 Z " fill="#000000" transform="translate(321,25)"/>
<path d="M0 0 C2.83743194 2.15229593 3.824607 3.98779791 4.7265625 7.40234375 C4.7678125 8.28921875 4.8090625 9.17609375 4.8515625 10.08984375 C-0.48005373 10.44528483 -0.48005373 10.44528483 -3.1484375 10.08984375 C-4.50152063 8.77655718 -5.83713828 7.44485294 -7.1484375 6.08984375 C-10.34798704 6.23333722 -10.34798704 6.23333722 -13.1484375 7.08984375 C-12.8184375 8.07984375 -12.4884375 9.06984375 -12.1484375 10.08984375 C-9.52715359 11.19969613 -9.52715359 11.19969613 -6.3984375 12.02734375 C2.2632861 14.78756007 2.2632861 14.78756007 4.8515625 18.08984375 C6.34884087 22.80717258 6.35205692 26.03110555 4.2265625 30.52734375 C1.1570332 33.83920431 -1.39301932 34.895638 -5.8671875 35.390625 C-15.18984537 35.42990586 -15.18984537 35.42990586 -19.1484375 32.08984375 C-20.0146875 31.47109375 -20.0146875 31.47109375 -20.8984375 30.83984375 C-22.82769792 28.13887916 -22.84265963 25.3310892 -23.1484375 22.08984375 C-17.74387724 21.64684701 -17.74387724 21.64684701 -15.1484375 22.08984375 C-14.6740625 22.91484375 -14.1996875 23.73984375 -13.7109375 24.58984375 C-13.1953125 25.41484375 -12.6796875 26.23984375 -12.1484375 27.08984375 C-9.11268727 27.55394226 -6.19723275 27.37746594 -3.1484375 27.08984375 C-3.6434375 24.61484375 -3.6434375 24.61484375 -4.1484375 22.08984375 C-4.95667969 21.8475 -5.76492188 21.60515625 -6.59765625 21.35546875 C-17.40002434 17.96751253 -17.40002434 17.96751253 -21.1484375 14.08984375 C-22.55844414 11.26983048 -22.39392201 9.2197712 -22.1484375 6.08984375 C-18.33840466 -2.2922285 -8.07721784 -3.42180319 0 0 Z " fill="#000000" transform="translate(357.1484375,25.91015625)"/>
<path d="M0 0 C2.83743194 2.15229593 3.824607 3.98779791 4.7265625 7.40234375 C4.7678125 8.28921875 4.8090625 9.17609375 4.8515625 10.08984375 C-0.48005373 10.44528483 -0.48005373 10.44528483 -3.1484375 10.08984375 C-4.50152063 8.77655718 -5.83713828 7.44485294 -7.1484375 6.08984375 C-10.34798704 6.23333722 -10.34798704 6.23333722 -13.1484375 7.08984375 C-12.8184375 8.07984375 -12.4884375 9.06984375 -12.1484375 10.08984375 C-9.52715359 11.19969613 -9.52715359 11.19969613 -6.3984375 12.02734375 C2.2632861 14.78756007 2.2632861 14.78756007 4.8515625 18.08984375 C6.34884087 22.80717258 6.35205692 26.03110555 4.2265625 30.52734375 C1.1570332 33.83920431 -1.39301932 34.895638 -5.8671875 35.390625 C-15.18984537 35.42990586 -15.18984537 35.42990586 -19.1484375 32.08984375 C-20.0146875 31.47109375 -20.0146875 31.47109375 -20.8984375 30.83984375 C-22.82769792 28.13887916 -22.84265963 25.3310892 -23.1484375 22.08984375 C-17.74387724 21.64684701 -17.74387724 21.64684701 -15.1484375 22.08984375 C-14.6740625 22.91484375 -14.1996875 23.73984375 -13.7109375 24.58984375 C-13.1953125 25.41484375 -12.6796875 26.23984375 -12.1484375 27.08984375 C-9.11268727 27.55394226 -6.19723275 27.37746594 -3.1484375 27.08984375 C-3.6434375 24.61484375 -3.6434375 24.61484375 -4.1484375 22.08984375 C-4.95667969 21.8475 -5.76492188 21.60515625 -6.59765625 21.35546875 C-18.23595543 17.70533873 -18.23595543 17.70533873 -21.1484375 14.08984375 C-22.47278426 10.08306215 -22.5773091 7.12816446 -20.9609375 3.21484375 C-16.11463425 -2.46702902 -6.62526862 -2.80670471 0 0 Z " fill="#000000" transform="translate(389.1484375,25.91015625)"/>
<path d="M0 0 C2.64 0 5.28 0 8 0 C8 4.62 8 9.24 8 14 C12.29 14 16.58 14 21 14 C21 9.38 21 4.76 21 0 C23.64 0 26.28 0 29 0 C29 11.55 29 23.1 29 35 C26.36 35 23.72 35 21 35 C21 30.05 21 25.1 21 20 C16.71 20 12.42 20 8 20 C8 24.95 8 29.9 8 35 C5.36 35 2.72 35 0 35 C0 23.45 0 11.9 0 0 Z " fill="#000000" transform="translate(106,25)"/>
<path d="M0 0 C2.64 0 5.28 0 8 0 C8.01981934 0.77714355 8.03963867 1.55428711 8.06005859 2.35498047 C8.15507009 5.86200691 8.26484559 9.36841794 8.375 12.875 C8.4059375 14.09832031 8.436875 15.32164063 8.46875 16.58203125 C8.50742188 17.74863281 8.54609375 18.91523437 8.5859375 20.1171875 C8.6173584 21.19597168 8.6487793 22.27475586 8.68115234 23.38623047 C8.74676322 26.15761654 8.74676322 26.15761654 11 28 C15.14509433 28.28602162 15.14509433 28.28602162 19 27 C19.33 18.09 19.66 9.18 20 0 C22.64 0 25.28 0 28 0 C28.12426099 4.01993847 28.21464411 8.03912279 28.2746582 12.06054688 C28.2996928 13.42630503 28.33373218 14.79193067 28.37719727 16.15722656 C28.77465997 28.96955389 28.77465997 28.96955389 25.66796875 32.8671875 C20.43900751 37.04729415 14.42648198 36.61123739 8 36 C4.39334668 34.3210407 2.65622954 33.2965257 0.86376953 29.75512695 C-0.13645086 26.56476881 -0.22698347 23.9467562 -0.1953125 20.60546875 C-0.18886719 19.40341797 -0.18242187 18.20136719 -0.17578125 16.96289062 C-0.15902344 15.71701172 -0.14226562 14.47113281 -0.125 13.1875 C-0.11597656 11.92228516 -0.10695312 10.65707031 -0.09765625 9.35351562 C-0.07412394 6.23548436 -0.04124545 3.11783903 0 0 Z " fill="#000000" transform="translate(141,25)"/>
</svg>
