<?xml version="1.0" encoding="UTF-8"?>
<svg version="1.1" xmlns="http://www.w3.org/2000/svg" width="500" height="98">
<path d="M0 0 C5.0428125 -0.061875 5.0428125 -0.061875 10.1875 -0.125 C11.23832764 -0.14320801 12.28915527 -0.16141602 13.37182617 -0.18017578 C14.21205322 -0.1851709 15.05228027 -0.19016602 15.91796875 -0.1953125 C16.77156982 -0.20578613 17.6251709 -0.21625977 18.50463867 -0.22705078 C22.17812119 0.10719623 25.01493327 1.15080455 27.8125 3.5625 C29.63926327 7.31217199 29.70016682 10.9119292 29 15 C27.125 17.4375 27.125 17.4375 25 19 C24.34 19.66 23.68 20.32 23 21 C23.93441535 22.27310312 24.87267111 23.543388 25.8125 24.8125 C26.33457031 25.52019531 26.85664063 26.22789063 27.39453125 26.95703125 C28.83353105 28.78816725 30.34057865 30.37299713 32 32 C32.35827881 31.06615479 32.71655762 30.13230957 33.08569336 29.17016602 C34.41178319 25.7158416 35.74136429 22.26287002 37.07202148 18.81030273 C37.64817578 17.31392683 38.2233741 15.81718249 38.79760742 14.32006836 C39.62169195 12.17204476 40.44917074 10.02535628 41.27734375 7.87890625 C41.53466782 7.20598038 41.79199188 6.5330545 42.05711365 5.83973694 C43.88612829 1.11387171 43.88612829 1.11387171 45 0 C47.67058851 -0.14115161 50.32432238 -0.04247107 53 0 C56.55239327 7.60758106 59.78091701 15.29635309 62.8125 23.125 C63.42254883 24.68347656 63.42254883 24.68347656 64.04492188 26.2734375 C67 33.86227679 67 33.86227679 67 35 C64.03 35 61.06 35 58 35 C56 31 56 31 56 28 C51.38 28 46.76 28 42 28 C41.34 30.31 40.68 32.62 40 35 C27.47365471 36.44534753 27.47365471 36.44534753 22 35 C18.96095306 32.14123551 17.46418411 29.58257514 15.703125 25.8203125 C13.9760348 22.27131451 13.9760348 22.27131451 8 21 C8 25.62 8 30.24 8 35 C5.36 35 2.72 35 0 35 C0 23.45 0 11.9 0 0 Z M8 7 C8 9.64 8 12.28 8 15 C9.41623216 15.05447047 10.83308191 15.09300508 12.25 15.125 C13.43335938 15.15980469 13.43335938 15.15980469 14.640625 15.1953125 C17.20731941 14.9828378 18.7916067 14.28654105 21 13 C20.62095792 9.70924004 20.62095792 9.70924004 19 7 C17.14712498 6.92773498 15.29166122 6.9161878 13.4375 6.9375 C12.42558594 6.94652344 11.41367187 6.95554687 10.37109375 6.96484375 C9.58863281 6.97644531 8.80617188 6.98804688 8 7 Z M48 11 C47.01 14.3 46.02 17.6 45 21 C47.64 21 50.28 21 53 21 C51.68 17.7 50.36 14.4 49 11 C48.67 11 48.34 11 48 11 Z " fill="#000000" transform="translate(268,25)"/>
<path d="M0 0 C3.96 0 7.92 0 12 0 C13.65 5.94 15.3 11.88 17 18 C18.88783216 14.22433567 19.99909624 10.80325354 21.125 6.75 C21.47820312 5.48671875 21.83140625 4.2234375 22.1953125 2.921875 C22.46085937 1.95765625 22.72640625 0.9934375 23 0 C26.96 0 30.92 0 35 0 C35 11.55 35 23.1 35 35 C32.36 35 29.72 35 27 35 C26.67 29.72 26.34 24.44 26 19 C24.72487387 23.89050364 24.72487387 23.89050364 23.45727539 28.78295898 C22.11111111 33.88888889 22.11111111 33.88888889 21 35 C18.36 35 15.72 35 13 35 C11.68 29.72 10.36 24.44 9 19 C8.67 24.28 8.34 29.56 8 35 C5.36 35 2.72 35 0 35 C0 23.45 0 11.9 0 0 Z " fill="#000000" transform="translate(129,25)"/>
<path d="M0 0 C1.609375 0.8984375 1.609375 0.8984375 3.859375 3.3359375 C4.734375 7.0859375 4.734375 7.0859375 4.859375 10.3359375 C2.219375 10.3359375 -0.420625 10.3359375 -3.140625 10.3359375 C-3.470625 9.0159375 -3.800625 7.6959375 -4.140625 6.3359375 C-8.595625 6.8309375 -8.595625 6.8309375 -13.140625 7.3359375 C-12.810625 8.3259375 -12.480625 9.3159375 -12.140625 10.3359375 C-9.01442434 11.52598286 -5.9047925 12.45545559 -2.6875 13.35351562 C0.31797234 14.25691149 2.53018575 15.01666359 4.8046875 17.22265625 C6.64380778 20.90770836 6.61489857 24.32958313 5.859375 28.3359375 C3.92595951 31.90645959 1.77581601 34.03045716 -2.140625 35.3359375 C-8.37888399 35.84518313 -13.83410208 36.05050354 -19.140625 32.3359375 C-22.16926155 29.30730095 -22.66386997 26.53138175 -23.140625 22.3359375 C-20.500625 22.3359375 -17.860625 22.3359375 -15.140625 22.3359375 C-14.851875 22.9753125 -14.563125 23.6146875 -14.265625 24.2734375 C-13.31239049 26.48799829 -13.31239049 26.48799829 -11.140625 27.3359375 C-8.8076384 27.37616141 -6.47355834 27.37913997 -4.140625 27.3359375 C-3.480625 25.6859375 -2.820625 24.0359375 -2.140625 22.3359375 C-2.86507812 22.15417969 -3.58953125 21.97242187 -4.3359375 21.78515625 C-17.85030242 18.27142137 -17.85030242 18.27142137 -21.140625 13.3359375 C-21.74309999 10.24246015 -21.72096725 7.43290407 -21.140625 4.3359375 C-16.28629544 -2.46012389 -7.58893508 -2.35423168 0 0 Z " fill="#000000" transform="translate(225.140625,25.6640625)"/>
<path d="M0 0 C8.91 0 17.82 0 27 0 C27 2.31 27 4.62 27 7 C20.73 7 14.46 7 8 7 C8 9.31 8 11.62 8 14 C13.61 14 19.22 14 25 14 C25 15.98 25 17.96 25 20 C19.39 20 13.78 20 8 20 C8 22.97 8 25.94 8 29 C14.27 29 20.54 29 27 29 C27 30.98 27 32.96 27 35 C18.09 35 9.18 35 0 35 C0 23.45 0 11.9 0 0 Z " fill="#000000" transform="translate(236,25)"/>
<path d="M0 0 C2.97 0 5.94 0 9 0 C10.85809101 4.49963651 12.70930915 9.00201493 14.55419922 13.50708008 C15.18284749 15.03943052 15.81337096 16.57101304 16.44580078 18.10180664 C17.35422284 20.30155706 18.25587781 22.50397586 19.15625 24.70703125 C19.44060913 25.39150833 19.72496826 26.07598541 20.01794434 26.78120422 C21.19839905 29.68591119 22 31.83205463 22 35 C19.36 35 16.72 35 14 35 C13.01 33.02 12.02 31.04 11 29 C6.71 29 2.42 29 -2 29 C-2.66 30.98 -3.32 32.96 -4 35 C-6.97 35 -9.94 35 -13 35 C-10.76690842 27.06176747 -7.92333637 19.50786526 -4.8125 11.875 C-4.34908203 10.72773437 -3.88566406 9.58046875 -3.40820312 8.3984375 C-2.27608834 5.59732875 -1.13995466 2.79792518 0 0 Z M4 11 C1.70954986 15.81209901 1.70954986 15.81209901 1 21 C3.31 21 5.62 21 8 21 C7.01 17.7 6.02 14.4 5 11 C4.67 11 4.34 11 4 11 Z " fill="#000000" transform="translate(179,25)"/>
<path d="M0 0 C9.57 0 19.14 0 29 0 C29 2.31 29 4.62 29 7 C25.7 7 22.4 7 19 7 C19 16.24 19 25.48 19 35 C16.36 35 13.72 35 11 35 C11 25.76 11 16.52 11 7 C7.37 7 3.74 7 0 7 C0 4.69 0 2.38 0 0 Z " fill="#000000" transform="translate(331,25)"/>
<path d="M0 0 C2.64 0 5.28 0 8 0 C8 11.55 8 23.1 8 35 C5.36 35 2.72 35 0 35 C0 23.45 0 11.9 0 0 Z " fill="#000000" transform="translate(363,25)"/>
</svg>
