<?xml version="1.0" encoding="UTF-8"?>
<svg version="1.1" xmlns="http://www.w3.org/2000/svg" width="500" height="98">
<path d="M0 0 C3.63 0 7.26 0 11 0 C13.5813138 6.57061694 16 12.85420329 16 20 C16.66 20 17.32 20 18 20 C18.16435547 18.96552734 18.16435547 18.96552734 18.33203125 17.91015625 C19.38301632 11.68114718 20.85695615 5.94207612 23 0 C26.63 0 30.26 0 34 0 C34 11.55 34 23.1 34 35 C31.69 35 29.38 35 27 35 C26.67 29.06 26.34 23.12 26 17 C24.35 22.94 22.7 28.88 21 35 C18.36 35 15.72 35 13 35 C11.35 29.06 9.7 23.12 8 17 C7.67 22.94 7.34 28.88 7 35 C4.69 35 2.38 35 0 35 C0 23.45 0 11.9 0 0 Z " fill="#000000" transform="translate(68,25)"/>
<path d="M0 0 C5.0428125 -0.061875 5.0428125 -0.061875 10.1875 -0.125 C11.23832764 -0.14320801 12.28915527 -0.16141602 13.37182617 -0.18017578 C14.21205322 -0.1851709 15.05228027 -0.19016602 15.91796875 -0.1953125 C16.77156982 -0.20578613 17.6251709 -0.21625977 18.50463867 -0.22705078 C22.17812119 0.10719623 25.01493327 1.15080455 27.8125 3.5625 C29.63926327 7.31217199 29.70016682 10.9119292 29 15 C27.125 17.4375 27.125 17.4375 25 19 C24.34 19.66 23.68 20.32 23 21 C23.48210937 21.59167969 23.96421875 22.18335937 24.4609375 22.79296875 C25.40839844 23.97826172 25.40839844 23.97826172 26.375 25.1875 C27.00148438 25.96480469 27.62796875 26.74210937 28.2734375 27.54296875 C29.97807134 29.96879382 31.01987906 32.21309045 32 35 C28.43011273 35.79005702 25.53791966 36.02094253 22 35 C19.51696467 32.10891341 17.77846687 29.17828092 15.984375 25.8203125 C13.93868594 22.31966475 13.93868594 22.31966475 8 21 C8 25.62 8 30.24 8 35 C5.36 35 2.72 35 0 35 C0 23.45 0 11.9 0 0 Z M8 7 C8 9.64 8 12.28 8 15 C9.41623216 15.05447047 10.83308191 15.09300508 12.25 15.125 C13.43335938 15.15980469 13.43335938 15.15980469 14.640625 15.1953125 C17.20731941 14.9828378 18.7916067 14.28654105 21 13 C20.62095792 9.70924004 20.62095792 9.70924004 19 7 C17.14712498 6.92773498 15.29166122 6.9161878 13.4375 6.9375 C12.42558594 6.94652344 11.41367187 6.95554687 10.37109375 6.96484375 C9.58863281 6.97644531 8.80617188 6.98804688 8 7 Z " fill="#000000" transform="translate(371,25)"/>
<path d="M0 0 C1.546875 1.01953125 1.546875 1.01953125 3.921875 3.20703125 C4.788125 3.85671875 4.788125 3.85671875 5.671875 4.51953125 C9.16444983 9.23450727 9.60398627 15.53359781 8.921875 21.20703125 C7.55480377 27.41054775 5.12559548 30.62947342 -0.078125 34.20703125 C-5.20340127 35.91545667 -11.00744731 36.13890053 -16.21484375 34.55859375 C-20.84209466 32.20983732 -23.30349684 28.93294321 -25.078125 24.20703125 C-26.53979892 17.73390389 -26.5080226 11.21978468 -22.96875 5.375 C-17.45035069 -1.62519172 -8.33172479 -3.17921077 0 0 Z M-15.078125 8.01953125 C-17.99719506 12.67179917 -17.9703441 16.85371662 -17.078125 22.20703125 C-15.27694022 25.20900589 -14.17479768 26.65869491 -11.078125 28.20703125 C-7.12381774 28.73427222 -5.55907209 28.54903807 -2.265625 26.20703125 C0.43997486 22.4964943 1.24177225 19.77205151 0.921875 15.20703125 C-0.05862564 11.64663176 -1.43695772 8.84819853 -4.078125 6.20703125 C-8.80222284 5.66492166 -10.98808787 5.54846715 -15.078125 8.01953125 Z " fill="#000000" transform="translate(358.078125,25.79296875)"/>
<path d="M0 0 C2.64 0 5.28 0 8 0 C8.33 4.29 8.66 8.58 9 13 C9.75023437 12.0615625 10.50046875 11.123125 11.2734375 10.15625 C19.36790153 0.46601261 19.36790153 0.46601261 24.0234375 -0.86328125 C26.47383737 -0.81764343 28.63052443 -0.6133377 31 0 C29.42219077 3.71045247 27.09296752 6.29906384 24.375 9.25 C23.55773437 10.14203125 22.74046875 11.0340625 21.8984375 11.953125 C21.27195312 12.62859375 20.64546875 13.3040625 20 14 C24.65247703 22.26347632 24.65247703 22.26347632 29.9375 30.125 C32 33 32 33 32 35 C28.36248689 35.95684061 25.60099123 36.18538854 22 35 C18.10070139 31.05159183 15.56890636 25.86478885 13 21 C10.53303195 23.11172465 9.14881742 24.37038784 8.390625 27.578125 C8.32101562 28.90070312 8.32101562 28.90070312 8.25 30.25 C8.19328125 31.14203125 8.1365625 32.0340625 8.078125 32.953125 C8.05234375 33.62859375 8.0265625 34.3040625 8 35 C5.36 35 2.72 35 0 35 C0 23.45 0 11.9 0 0 Z " fill="#000000" transform="translate(299,25)"/>
<path d="M0 0 C1.11246094 -0.01675781 2.22492188 -0.03351562 3.37109375 -0.05078125 C6.88497456 0.34920763 8.73705888 1.22899126 11.5625 3.3125 C13.59921629 6.31908118 13.5625 7.50346596 13.5625 11.3125 C8.23088377 11.66794108 8.23088377 11.66794108 5.5625 11.3125 C4.20941687 9.99921343 2.87379922 8.66750919 1.5625 7.3125 C-1.63704954 7.45599347 -1.63704954 7.45599347 -4.4375 8.3125 C-4.1075 9.3025 -3.7775 10.2925 -3.4375 11.3125 C-0.58046514 12.34878279 -0.58046514 12.34878279 2.8125 13.125 C10.31365997 15.30700592 10.31365997 15.30700592 12.875 18.0625 C15.12958782 22.40466914 15.25596179 24.45826749 14.5625 29.3125 C12.39115287 32.87971314 10.40598338 34.77510665 6.5625 36.3125 C1.01806652 36.97659649 -3.8845774 37.02085066 -9 34.6875 C-11.70259463 32.05420266 -13.09098388 29.82840321 -14.4375 26.3125 C-14.4375 25.3225 -14.4375 24.3325 -14.4375 23.3125 C-11.7975 23.3125 -9.1575 23.3125 -6.4375 23.3125 C-6.14875 23.951875 -5.86 24.59125 -5.5625 25.25 C-4.60926549 27.46456079 -4.60926549 27.46456079 -2.4375 28.3125 C1.70753661 28.56037017 1.70753661 28.56037017 5.5625 27.3125 C5.51132624 25.34427511 5.51132624 25.34427511 4.5625 23.3125 C1.95426891 22.1235219 1.95426891 22.1235219 -1.1875 21.375 C-6.12644935 19.86571346 -9.39847602 18.71384507 -12.4375 14.3125 C-13.73092871 10.51305316 -13.63215435 8.84523823 -12.25 5.0625 C-9.02751829 0.1732174 -5.65283849 0.01960522 0 0 Z " fill="#000000" transform="translate(418.4375,24.6875)"/>
<path d="M0 0 C8.91 0 17.82 0 27 0 C27 2.31 27 4.62 27 7 C20.73 7 14.46 7 8 7 C8 9.31 8 11.62 8 14 C13.94 14 19.88 14 26 14 C26 15.98 26 17.96 26 20 C20.06 20 14.12 20 8 20 C8 22.97 8 25.94 8 29 C14.6 29 21.2 29 28 29 C28 30.98 28 32.96 28 35 C18.76 35 9.52 35 0 35 C0 23.45 0 11.9 0 0 Z " fill="#000000" transform="translate(225,25)"/>
<path d="M0 0 C2.64 0 5.28 0 8 0 C8 4.62 8 9.24 8 14 C12.29 14 16.58 14 21 14 C21 9.38 21 4.76 21 0 C23.64 0 26.28 0 29 0 C29 11.55 29 23.1 29 35 C26.36 35 23.72 35 21 35 C21 30.05 21 25.1 21 20 C16.71 20 12.42 20 8 20 C8 24.95 8 29.9 8 35 C5.36 35 2.72 35 0 35 C0 23.45 0 11.9 0 0 Z " fill="#000000" transform="translate(156,25)"/>
<path d="M0 0 C2.05078125 0.03255208 4.1015625 0.06510417 6.15234375 0.09765625 C7.82740087 4.11672302 9.49966694 8.13693645 11.16943359 12.15820312 C11.73703981 13.52407625 12.30538777 14.88964139 12.87451172 16.25488281 C13.69567187 18.22509192 14.51409719 20.19641851 15.33203125 22.16796875 C15.82429199 23.35148926 16.31655273 24.53500977 16.82373047 25.75439453 C18.05015658 28.84051712 19.13787007 31.93637104 20.15234375 35.09765625 C17.18234375 35.09765625 14.21234375 35.09765625 11.15234375 35.09765625 C9.15234375 31.09765625 9.15234375 31.09765625 9.15234375 28.09765625 C4.53234375 28.09765625 -0.08765625 28.09765625 -4.84765625 28.09765625 C-5.83765625 31.56265625 -5.83765625 31.56265625 -6.84765625 35.09765625 C-9.81765625 35.09765625 -12.78765625 35.09765625 -15.84765625 35.09765625 C-12.62508101 26.43329645 -9.36525128 17.78382524 -6.03515625 9.16015625 C-5.73343506 8.37334473 -5.43171387 7.5865332 -5.12084961 6.77587891 C-2.54562417 0.13454673 -2.54562417 0.13454673 0 0 Z M1.15234375 11.09765625 C0.16234375 14.39765625 -0.82765625 17.69765625 -1.84765625 21.09765625 C0.46234375 21.09765625 2.77234375 21.09765625 5.15234375 21.09765625 C4.6276947 16.48074464 4.07743461 14.99777739 1.15234375 11.09765625 Z " fill="#000000" transform="translate(202.84765625,24.90234375)"/>
<path d="M0 0 C2.94579778 1.86396634 4.87921197 3.92907273 5.94921875 7.24609375 C5.94921875 8.23609375 5.94921875 9.22609375 5.94921875 10.24609375 C3.30921875 10.57609375 0.66921875 10.90609375 -2.05078125 11.24609375 C-2.46328125 10.60671875 -2.87578125 9.96734375 -3.30078125 9.30859375 C-4.86537309 7.17378297 -4.86537309 7.17378297 -6.92578125 6.37109375 C-9.90804087 6.19566671 -11.48919864 6.69566217 -14.05078125 8.24609375 C-16.68536697 13.15600349 -16.25293601 17.96663078 -15.05078125 23.24609375 C-14.06997231 25.86591521 -14.06997231 25.86591521 -12.05078125 27.24609375 C-8.80391151 27.71959559 -6.94255323 27.89185967 -4.23828125 25.93359375 C-2.85622279 24.1413315 -2.85622279 24.1413315 -2.05078125 21.24609375 C3.69921875 22.12109375 3.69921875 22.12109375 5.94921875 23.24609375 C5.44536052 27.6548533 4.03791205 30.07160341 0.94921875 33.24609375 C-3.37294213 35.83939028 -8.15234601 35.79998042 -13.05078125 35.24609375 C-17.76620961 33.55565717 -20.32367083 31.43415617 -23.05078125 27.24609375 C-25.74298495 21.18863542 -25.92752813 15.28652041 -23.86328125 9.05859375 C-22.30520163 5.30738785 -20.20467323 2.84805463 -17.05078125 0.24609375 C-11.82094229 -1.4971859 -5.24282917 -1.92736387 0 0 Z " fill="#000000" transform="translate(145.05078125,25.75390625)"/>
<path d="M0 0 C2.64 0 5.28 0 8 0 C8 9.57 8 19.14 8 29 C13.61 29 19.22 29 25 29 C25 30.98 25 32.96 25 35 C16.75 35 8.5 35 0 35 C0 23.45 0 11.9 0 0 Z " fill="#000000" transform="translate(258,25)"/>
<path d="M0 0 C2.64 0 5.28 0 8 0 C8 11.55 8 23.1 8 35 C5.36 35 2.72 35 0 35 C0 23.45 0 11.9 0 0 Z " fill="#000000" transform="translate(108,25)"/>
</svg>
