<?xml version="1.0" encoding="UTF-8"?>
<svg version="1.1" xmlns="http://www.w3.org/2000/svg" width="500" height="98">
<path d="M0 0 C4.36807886 1.88279261 7.10381723 4.4592277 9.3046875 8.75 C11.25394 15.05769347 11.06003873 22.45955054 8.5 28.5625 C5.96966129 32.74729094 2.66587291 34.72966816 -2 36 C-7.96507829 36.80086699 -12.94377817 36.52759663 -18 33 C-22.55743649 28.46733219 -24.1569933 24.70464393 -24.3125 18.3125 C-24.23373455 11.07483032 -22.58165391 6.71753043 -17.625 1.5 C-11.83530377 -0.89573637 -6.17008904 -0.71080598 0 0 Z M-13.4375 8.8125 C-16.28030354 12.79242496 -16.32387146 16.22289602 -16 21 C-14.42275698 24.98066095 -13.58999089 26.60667274 -10 29 C-6.14166724 29.50326079 -4.49142057 29.31669325 -1.1875 27.1875 C1.8113335 24.1886665 2.1663714 21.70886349 2.25 17.625 C2.21096045 13.6299526 1.58218201 11.17807016 -1 8 C-5.24374504 5.87812748 -9.73107441 6.05643995 -13.4375 8.8125 Z " fill="#000000" transform="translate(313,25)"/>
<path d="M0 0 C2.64 0 5.28 0 8 0 C8.33 3.96 8.66 7.92 9 12 C10.64886059 10.37807179 12.2940024 8.75236228 13.9375 7.125 C14.85402344 6.22007813 15.77054687 5.31515625 16.71484375 4.3828125 C19.01187627 2.22317745 19.01187627 2.22317745 20 0 C23.63 0 27.26 0 31 0 C28.64580538 4.70838925 25.65437752 7.28124965 21.80078125 10.78125 C20.90939453 11.87953125 20.90939453 11.87953125 20 13 C20.39126142 16.1917171 21.74381281 18.42832055 23.50390625 21.07421875 C23.99697266 21.82380859 24.49003906 22.57339844 24.99804688 23.34570312 C25.51431641 24.11849609 26.03058594 24.89128906 26.5625 25.6875 C27.58654162 27.23181059 28.60878093 28.77731837 29.62890625 30.32421875 C30.3106189 31.3464856 30.3106189 31.3464856 31.00610352 32.3894043 C32 34 32 34 32 35 C28.37 35 24.74 35 21 35 C17.04 28.07 17.04 28.07 13 21 C8.81456127 23.46383936 8.81456127 23.46383936 8.390625 26.69921875 C8.32101562 28.17841797 8.32101562 28.17841797 8.25 29.6875 C8.19328125 30.68136719 8.1365625 31.67523438 8.078125 32.69921875 C8.05234375 33.45847656 8.0265625 34.21773437 8 35 C5.36 35 2.72 35 0 35 C0 23.45 0 11.9 0 0 Z " fill="#000000" transform="translate(256,25)"/>
<path d="M0 0 C1.69576172 -0.03867187 1.69576172 -0.03867187 3.42578125 -0.078125 C7.02827832 0.28428189 8.82169627 1.07909027 11.6875 3.25 C13.8394437 6.47791555 13.88836443 7.53400809 13.6875 11.25 C11.0475 11.25 8.4075 11.25 5.6875 11.25 C5.3575 10.26 5.0275 9.27 4.6875 8.25 C0.58526415 7.23459888 0.58526415 7.23459888 -3.3125 8.25 C-3.6425 9.24 -3.9725 10.23 -4.3125 11.25 C-3.51585937 11.42015625 -2.71921875 11.5903125 -1.8984375 11.765625 C4.07736659 13.13235392 8.94829204 14.27931225 13.6875 18.25 C15.54605282 21.96710563 15.26658439 26.20277281 14.6875 30.25 C12.16073961 33.59625024 10.64816458 34.92977847 6.6875 36.25 C0.4985715 36.75521865 -5.09745888 37.03090481 -10.3125 33.25 C-12.97950027 29.87179966 -13.67893342 27.52505653 -13.3125 23.25 C-10.0625 22.9375 -10.0625 22.9375 -6.3125 23.25 C-4.3125 25.75 -4.3125 25.75 -2.3125 28.25 C1.35549815 28.66771804 1.35549815 28.66771804 4.6875 28.25 C5.0175 26.6 5.3475 24.95 5.6875 23.25 C4.80707031 23.01925781 3.92664063 22.78851563 3.01953125 22.55078125 C-9.35025942 19.07735501 -9.35025942 19.07735501 -12.3125 14.25 C-13.27534874 9.86368906 -12.85966409 7.10722374 -10.4375 3.3125 C-6.98476713 -0.0386819 -4.73186716 0.06430624 0 0 Z " fill="#000000" transform="translate(190.3125,24.75)"/>
<path d="M0 0 C8.91 0 17.82 0 27 0 C27 2.31 27 4.62 27 7 C20.73 7 14.46 7 8 7 C8 9.31 8 11.62 8 14 C13.94 14 19.88 14 26 14 C26 15.98 26 17.96 26 20 C20.06 20 14.12 20 8 20 C8 22.97 8 25.94 8 29 C14.27 29 20.54 29 27 29 C27 30.98 27 32.96 27 35 C18.09 35 9.18 35 0 35 C0 23.45 0 11.9 0 0 Z " fill="#000000" transform="translate(210,25)"/>
<path d="M0 0 C2.64 0 5.28 0 8 0 C8 11.55 8 23.1 8 35 C5.36 35 2.72 35 0 35 C0 23.45 0 11.9 0 0 Z " fill="#000000" transform="translate(242,25)"/>
</svg>
